<svg width="18" height="18" viewBox="0 0 18 18" fill="none" xmlns="http://www.w3.org/2000/svg">
<path d="M15.4432 0.0600586H2.56323C1.90076 0.0619058 1.26595 0.325891 0.797506 0.794332C0.329065 1.26277 0.0650796 1.89759 0.0632324 2.56006V15.4401C0.0650796 16.1025 0.329065 16.7373 0.797506 17.2058C1.26595 17.6742 1.90076 17.9382 2.56323 17.9401H15.4432C16.1063 17.9401 16.7422 17.6767 17.211 17.2078C17.6798 16.739 17.9432 16.1031 17.9432 15.4401V2.56006C17.9432 1.89702 17.6798 1.26113 17.211 0.792292C16.7422 0.323451 16.1063 0.0600586 15.4432 0.0600586ZM16.9432 15.4401C16.9404 15.837 16.7814 16.2169 16.5007 16.4975C16.22 16.7782 15.8402 16.9372 15.4432 16.9401H2.56323C2.1663 16.9372 1.78644 16.7782 1.50575 16.4975C1.22507 16.2169 1.06611 15.837 1.06323 15.4401V2.56006C1.06611 2.16312 1.22507 1.78326 1.50575 1.50258C1.78644 1.2219 2.1663 1.06294 2.56323 1.06006H15.4432C15.8402 1.06294 16.22 1.2219 16.5007 1.50258C16.7814 1.78326 16.9404 2.16312 16.9432 2.56006V15.4401Z" fill="black"/>
<path d="M3.37915 7.74805C3.37915 7.48283 3.48451 7.22848 3.67204 7.04094C3.85958 6.8534 4.11393 6.74805 4.37915 6.74805C4.64437 6.74805 4.89872 6.8534 5.08626 7.04094C5.27379 7.22848 5.37915 7.48283 5.37915 7.74805V14.248C5.37915 14.5133 5.27379 14.7676 5.08626 14.9552C4.89872 15.1427 4.64437 15.248 4.37915 15.248C4.11393 15.248 3.85958 15.1427 3.67204 14.9552C3.48451 14.7676 3.37915 14.5133 3.37915 14.248V7.74805Z" fill="black"/>
<path d="M4.37915 4.74402C4.93144 4.74402 5.37915 4.2963 5.37915 3.74402C5.37915 3.19173 4.93144 2.74402 4.37915 2.74402C3.82687 2.74402 3.37915 3.19173 3.37915 3.74402C3.37915 4.2963 3.82687 4.74402 4.37915 4.74402Z" fill="black"/>
<path d="M14.6231 10.37V14.25C14.6231 14.5152 14.5177 14.7696 14.3302 14.9571C14.1426 15.1446 13.8883 15.25 13.6231 15.25C13.3579 15.25 13.1035 15.1446 12.916 14.9571C12.7284 14.7696 12.6231 14.5152 12.6231 14.25V10.37C12.6231 9.94166 12.4529 9.53088 12.15 9.22801C11.8472 8.92514 11.4364 8.75499 11.0081 8.75499C10.5797 8.75499 10.169 8.92514 9.86609 9.22801C9.56322 9.53088 9.39307 9.94166 9.39307 10.37V14.25C9.39307 14.5152 9.28771 14.7696 9.10017 14.9571C8.91264 15.1446 8.65828 15.25 8.39307 15.25C8.12785 15.25 7.8735 15.1446 7.68596 14.9571C7.49842 14.7696 7.39307 14.5152 7.39307 14.25V7.74999C7.39719 7.48606 7.50387 7.23409 7.69052 7.04744C7.87717 6.86079 8.12914 6.75411 8.39307 6.74999C8.56244 6.74535 8.72992 6.78658 8.87779 6.86931C9.02566 6.95205 9.14841 7.07321 9.23307 7.21999C9.78288 6.90802 10.405 6.74595 11.0371 6.74999C11.6693 6.75403 12.2893 6.92404 12.8351 7.243C13.3809 7.56197 13.8333 8.0187 14.1471 8.56748C14.4609 9.11626 14.625 9.73783 14.6231 10.37Z" fill="black"/>
</svg>
